<svg width="22" height="22" viewBox="0 0 22 22" fill="none" xmlns="http://www.w3.org/2000/svg">
<path d="M3.66667 11.9167C4.17293 11.9167 4.58333 11.5063 4.58333 11C4.58333 10.4937 4.17293 10.0833 3.66667 10.0833C3.16041 10.0833 2.75 10.4937 2.75 11C2.75 11.5063 3.16041 11.9167 3.66667 11.9167Z" fill="black"/>
<path d="M18.3884 10.0833H7.27835C6.80247 10.0833 6.41669 10.4691 6.41669 10.945V11.055C6.41669 11.5309 6.80247 11.9167 7.27835 11.9167H18.3884C18.8642 11.9167 19.25 11.5309 19.25 11.055V10.945C19.25 10.4691 18.8642 10.0833 18.3884 10.0833Z" fill="black"/>
<path d="M18.3883 14.6667H3.61167C3.13578 14.6667 2.75 15.0524 2.75 15.5283V15.6383C2.75 16.1142 3.13578 16.5 3.61167 16.5H18.3883C18.8642 16.5 19.25 16.1142 19.25 15.6383V15.5283C19.25 15.0524 18.8642 14.6667 18.3883 14.6667Z" fill="black"/>
<path d="M18.3883 5.5H3.61167C3.13578 5.5 2.75 5.88578 2.75 6.36167V6.47167C2.75 6.94755 3.13578 7.33333 3.61167 7.33333H18.3883C18.8642 7.33333 19.25 6.94755 19.25 6.47167V6.36167C19.25 5.88578 18.8642 5.5 18.3883 5.5Z" fill="black"/>
</svg>
