<svg width="17" height="16" viewBox="0 0 17 16" fill="none" xmlns="http://www.w3.org/2000/svg">
<path d="M16.3998 3.34001L13.6598 0.60001C13.3022 0.264106 12.8336 0.0713693 12.3431 0.0584625C11.8527 0.0455557 11.3746 0.21338 10.9998 0.530011L1.99981 9.53001C1.67657 9.85598 1.47531 10.2832 1.42981 10.74L0.999808 14.91C0.986337 15.0565 1.00534 15.2041 1.05547 15.3424C1.1056 15.4807 1.18561 15.6062 1.28981 15.71C1.38325 15.8027 1.49406 15.876 1.6159 15.9258C1.73774 15.9755 1.8682 16.0008 1.99981 16H2.08981L6.25981 15.62C6.71661 15.5745 7.14384 15.3732 7.46981 15.05L16.4698 6.05001C16.8191 5.68098 17.0079 5.18852 16.9948 4.68055C16.9817 4.17257 16.7677 3.69052 16.3998 3.34001ZM6.07981 13.62L3.07981 13.9L3.34981 10.9L8.99981 5.32001L11.6998 8.02001L6.07981 13.62ZM12.9998 6.68001L10.3198 4.00001L12.2698 2.00001L14.9998 4.73001L12.9998 6.68001Z" fill="#42a69b"/>
</svg>
